<svg width="32" height="32" viewBox="0 0 32 32" fill="none" xmlns="http://www.w3.org/2000/svg">
  <!-- Trophy cup -->
  <path d="M8 12V20C8 22.2091 9.79086 24 12 24H20C22.2091 24 24 22.2091 24 20V12H8Z" fill="#3B82F6"/>
  
  <!-- Trophy handles -->
  <path d="M6 14H8V18H6C4.89543 18 4 17.1046 4 16C4 14.8954 4.89543 14 6 14Z" fill="#1D4ED8"/>
  <path d="M24 14H26C27.1046 14 28 14.8954 28 16C28 17.1046 27.1046 18 26 18H24V14Z" fill="#1D4ED8"/>
  
  <!-- Trophy base -->
  <rect x="10" y="24" width="12" height="2" fill="#6B7280"/>
  <rect x="8" y="26" width="16" height="2" fill="#6B7280"/>
  
  <!-- Trophy top decoration -->
  <rect x="12" y="8" width="8" height="4" fill="#EF4444"/>
  <circle cx="16" cy="6" r="2" fill="#F59E0B"/>
</svg>
